<svg width="1000" height="1000" xmlns="http://www.w3.org/2000/svg" class="icon">
 <defs>
  <style type="text/css"/>
 </defs>
 <g>
  <title>background</title>
  <rect fill="none" id="canvas_background" height="602" width="802" y="10" x="10"/>
 </g>
 <g>
  <title>Layer 1</title>
  <path stroke="null" id="svg_1" fill="#464BD8" d="m744.10001,410.54082c-197.5,-44.35981 -35.6,-324.96377 -306.2,-301.70816s-527.2,661.60656 -46.8,811.0776s728,-425.15751 353,-509.36943z"/>
  <path id="svg_2" fill="#FFFFFF" d="m621.80002,774.29998c-1.3,0 -2.7,-0.3 -3.9,-0.9l-27.5,-12.7a9.28,9.28 0 0 1 -5,-10.9l9.4,-33.8l-20.6,28.9a9.3,9.3 0 0 1 -11.5,3l-20.5,-9.5a9.4,9.4 0 0 1 -5.4,-8.4l-0.1,-17.9l-14.5,11.4c-1.7,1.3 -3.7,2 -5.7,2c-1.3,0 -2.7,-0.3 -3.9,-0.9l-126.5,-58.7a9.25,9.25 0 0 1 -5.1,-10.7l15.1,-58.3l-32,50a9.4,9.4 0 0 1 -7.8,4.3c-1.3,0 -2.6,-0.3 -3.9,-0.9l-47.5,-22a9.38,9.38 0 0 1 -4.2,-13l126.7,-224.9a9.24,9.24 0 0 1 12,-3.8l275.1,127.7c4.4,2 6.5,7.1 4.8,11.6l-89.1,242.4c-0.9,2.4 -2.8,4.4 -5.2,5.4c-0.8,0.4 -2,0.6 -3.2,0.6z"/>
  <path id="svg_3" fill="#151B28" d="m439.70002,386.99997l275.1,127.7l-89.1,242.4l-27.5,-12.7l13.9,-49.9a6.3,6.3 0 0 0 -6.1,-8c-2,0 -3.9,0.9 -5.2,2.7l-30.2,42.4l-20.5,-9.5l-0.1,-20.2c0.4,-3.3 -1.4,-6.5 -4.4,-7.9c-1,-0.5 -2.1,-0.7 -3.2,-0.7c-1.7,0 -3.4,0.6 -4.8,1.6l-17.1,13.5l-126.5,-58.7l18.5,-71.2c0.9,-3.3 -0.8,-6.8 -3.9,-8.3c-1,-0.4 -2,-0.7 -3,-0.7c-2.4,0 -4.7,1.2 -6,3.3l-39.2,61.3l-47.5,-22l126.8,-225.1m0.1,-18.6c-6.5,0 -12.8,3.4 -16.2,9.4l-126.7,225c-2.5,4.5 -3.1,9.9 -1.5,14.8s5.2,9 9.8,11.1l47.5,22c2.5,1.2 5.2,1.7 7.8,1.7c6.2,0 12.1,-3.1 15.6,-8.6l0.6,-0.9l-0.5,1.9c-2.2,8.7 2,17.7 10.1,21.5l126.5,58.7c2.5,1.2 5.2,1.7 7.8,1.7c3.9,0 7.8,-1.3 11.1,-3.7c0.4,6.8 4.5,12.8 10.7,15.7l20.5,9.5c2.5,1.2 5.2,1.7 7.8,1.7c3.3,0 6.5,-0.9 9.4,-2.5c1,5.8 4.8,11 10.5,13.7l27.5,12.7c2.5,1.1 5.1,1.7 7.8,1.7c2.4,0 4.8,-0.5 7.1,-1.4c4.8,-2 8.5,-5.9 10.3,-10.7l89,-242.4c3.3,-9.1 -0.8,-19.1 -9.6,-23.2l-275.1,-127.7c-2.6,-1.1 -5.2,-1.7 -7.8,-1.7z"/>
  <path id="svg_4" fill="#2AEFC8" d="m704.90002,529.69996l-237.7,-110.3c-7.6,-3.5 -16.7,-0.6 -20.8,6.7l-105.2,186.9l19.3,9l39.2,-61.3c1.9,-3 5.8,-4.1 9,-2.6c3.1,1.5 4.8,4.9 3.9,8.3l-14.9,57.5l16,-24.9c1.9,-3 5.8,-4.1 9,-2.6c3.1,1.5 4.8,4.9 3.9,8.3l-11.1,43l105.2,48.8l17.1,-13.5c2.3,-1.8 5.4,-2.2 8,-0.9c3,1.4 4.8,4.6 4.4,7.9l0.1,20.2l20.5,9.5l30.2,-42.4a6.3,6.3 0 0 1 7.8,-2.1c2.8,1.3 4.3,4.5 3.4,7.4l-13.9,49.9l3.3,1.5l13.3,-18.6a6.3,6.3 0 0 1 7.8,-2.1c2.8,1.3 4.3,4.5 3.4,7.4l-6.1,21.8l5.7,2.6l79.2,-215.4z"/>
  <path id="svg_5" fill="#FFFFFF" d="m736.00001,490.79998c-2.4,0 -4.7,-0.5 -6.9,-1.5l-290.1,-134.7a16.54,16.54 0 0 1 -8,-21.9l22.8,-49.1a6.68,6.68 0 0 1 8.9,-3.3c0.1,0 0.1,0.1 0.2,0.1c26.4,12.3 54.2,19 78.1,19c22.9,0 40.3,-6.1 49,-17.1c0.5,-1 0.9,-1.9 1.4,-2.9c0.5,-1.1 1.1,-2.1 1.6,-3.2l2.9,-6l1.2,-2.5c2.5,-5.3 4.9,-10.7 7.4,-16.7c3.3,-7.8 6.2,-15.3 8.6,-22.1a84.3,84.3 0 0 1 5.9,-19.5c0.1,-0.3 0.2,-0.6 0.3,-0.8l0.4,-0.8c12.3,-26.4 37,-44.1 61.5,-44.1c7.3,0 14.2,1.5 20.7,4.5c14.3,6.6 24.5,19.7 28.7,36.7c4.1,16.5 2,34.8 -5.8,51.7l-0.4,0.8c-0.1,0.3 -0.3,0.5 -0.4,0.8c-3,6.2 -6.7,11.9 -11.1,17.1c-3.6,6.2 -7.4,13.2 -11.3,20.9c-2.9,5.7 -5.5,11.1 -7.9,16.4l-1.2,2.6l-2.7,6c-0.5,1.1 -0.9,2.1 -1.4,3.2c-0.4,1 -0.9,2 -1.3,3c-5.9,29.3 30.6,71.3 83.5,95.8c1.6,0.8 2.9,2.1 3.5,3.8c0.6,1.7 0.6,3.6 -0.2,5.2l-22.9,49.1c-2.7,5.8 -8.6,9.5 -15,9.5z"/>
  <path id="svg_6" fill="#151B28" d="m685.10001,182.49999c6.1,0 12.1,1.2 17.8,3.9c25.6,11.9 34.3,47.4 19.5,79.4l-0.4,0.8s-0.1,0.1 -0.1,0.2c-3,6.2 -6.6,11.7 -10.8,16.6a491.43,491.43 0 0 0 -19.9,38.3l-1.2,2.6l-2.7,6.1c-1,2.4 -2,4.6 -3,6.9c-7.2,32.5 29.6,77.3 87.2,104.1l-22.8,49.1a9.65,9.65 0 0 1 -8.8,5.6c-1.4,0 -2.7,-0.3 -4.1,-0.9l-145.1,-67.3l-145.1,-67.3a9.7,9.7 0 0 1 -4.7,-12.8l22.8,-49.1c28.4,13.2 56.9,19.7 80.9,19.7c24.7,0 44.6,-6.8 54.8,-20.2c1.1,-2.2 2.2,-4.5 3.4,-6.8l2.9,-6l1.2,-2.6c2.7,-5.8 5.2,-11.4 7.5,-16.9c3.5,-8.2 6.5,-16 9,-23c1.1,-6.3 2.9,-12.7 5.7,-18.9l0,-0.2l0.4,-0.8c11.8,-25.1 34.2,-40.5 55.6,-40.5m0,-13.6l0,13.6l0,-13.6c-13.5,0 -27.1,4.6 -39.3,13.3c-12,8.6 -21.8,20.6 -28.4,34.8l-0.4,0.8c-0.2,0.4 -0.4,0.8 -0.5,1.2a90.4,90.4 0 0 0 -6.1,20.2c-2.3,6.5 -5.1,13.6 -8.3,21.2c-2.5,5.8 -4.9,11.2 -7.3,16.4l-1.2,2.5l-2.8,5.9c-0.5,1.1 -1.1,2.1 -1.6,3.2c-0.4,0.7 -0.7,1.5 -1.1,2.2c-7.5,8.9 -23.2,14 -43.3,14c-22.9,0 -49.7,-6.5 -75.2,-18.4c-1.8,-0.8 -3.8,-1.3 -5.7,-1.3a13.6,13.6 0 0 0 -12.3,7.8l-22.8,49.1c-5.4,11.6 -0.3,25.5 11.3,30.9l145.1,67.3l145.1,67.3c3.1,1.4 6.4,2.2 9.8,2.2c9,0 17.3,-5.3 21.1,-13.5l22.8,-49.1c1.5,-3.3 1.7,-7 0.4,-10.4c-1.2,-3.4 -3.8,-6.1 -7.1,-7.7c-25.9,-12 -48.3,-28.4 -63.1,-46.2c-12.6,-15.1 -18.6,-30.1 -16.7,-41.4c0.3,-0.7 0.7,-1.5 1,-2.2c0.5,-1.1 0.9,-2.2 1.4,-3.3l2.7,-5.9l1.2,-2.5c2.4,-5.2 5,-10.5 7.8,-16.2c3.7,-7.3 7.4,-14 10.8,-20a86.3,86.3 0 0 0 11.4,-17.7l0.6,-1.2l0.4,-0.8c8.5,-18.2 10.7,-38.2 6.3,-56.2c-4.7,-19.1 -16.2,-33.7 -32.4,-41.2c-7.4,-3.4 -15.3,-5.1 -23.6,-5.1z"/>
  <path id="svg_7" fill="#FFFFFF" d="m740.00001,501.29999c-2.8,0 -5.4,-0.6 -8,-1.8l-290.1,-134.7a18.9,18.9 0 0 1 -9.2,-25.1l22.8,-49.1a9.28,9.28 0 0 1 12,-4.7c0.1,0 0.2,0.1 0.3,0.1c26.1,12.1 53.5,18.8 77,18.8c21.7,0 38.7,-5.8 46.9,-15.9c0.4,-0.9 0.9,-1.8 1.3,-2.6c0.5,-1.1 1.1,-2.1 1.6,-3.2l2.8,-5.9l1.2,-2.6c2.4,-5.3 4.9,-10.7 7.4,-16.6c3.2,-7.7 6.1,-15 8.5,-21.7c1.2,-6.7 3.2,-13.4 6,-19.7c0.1,-0.3 0.2,-0.7 0.4,-1l0.4,-0.8c12.8,-27.7 37.9,-45.6 63.8,-45.6c7.6,0 14.9,1.6 21.7,4.7c15,7 25.6,20.6 30,38.3c4.2,17 2.1,36 -6,53.3l-0.4,0.8c-0.1,0.3 -0.3,0.6 -0.5,0.9c-3.1,6.2 -6.8,12 -11.2,17.3c-3.5,6.1 -7.3,13 -11.1,20.6c-2.9,5.7 -5.5,11 -7.9,16.3l-1.2,2.6l-2.7,6c-0.5,1.1 -2.2,5.1 -2.6,6c-4.7,24.9 24.5,66.1 82.2,92.8c2.2,1 4,2.9 4.8,5.2c0.8,2.3 0.7,4.9 -0.3,7.1l-22.8,49.1c-3,6.8 -9.7,11.1 -17.1,11.1z"/>
  <path id="svg_8" fill="#151B28" d="m689.10002,166.49998c6.1,0 12.1,1.2 17.8,3.9c25.6,11.9 34.3,47.4 19.5,79.4l-0.4,0.8s-0.1,0.1 -0.1,0.2c-3,6.2 -6.6,11.7 -10.8,16.6a491.43,491.43 0 0 0 -19.9,38.3l-1.2,2.6l-2.7,6.1c-1,2.4 -2,4.6 -3,6.9c-7.2,32.5 29.6,77.3 87.2,104.1l-22.8,49.1a9.65,9.65 0 0 1 -8.8,5.6c-1.4,0 -2.7,-0.3 -4.1,-0.9l-145.1,-67.3l-145.1,-67.3a9.7,9.7 0 0 1 -4.7,-12.8l22.8,-49.1c28.4,13.2 56.9,19.7 80.9,19.7c24.7,0 44.6,-6.8 54.8,-20.2c1.1,-2.2 2.2,-4.5 3.4,-6.8l2.9,-6l1.2,-2.6c2.7,-5.8 5.2,-11.4 7.5,-16.9c3.5,-8.2 6.5,-16 9,-23c1.1,-6.3 2.9,-12.7 5.7,-18.9l0,-0.2l0.4,-0.8c11.8,-25.1 34.2,-40.5 55.6,-40.5m0,-18.5c-14.5,0 -29.1,4.9 -42.2,14.2c-12.7,9.1 -23.1,21.8 -30,36.7l-0.4,0.8l-0.6,1.5c-2.9,6.7 -5,13.6 -6.3,20.7a476.68,476.68 0 0 1 -15.3,36.9l-1.2,2.5l-2.8,5.8c-0.5,1.1 -1.1,2.1 -1.6,3.2c-0.3,0.5 -0.5,1.1 -0.8,1.6c-6.7,7.4 -21.1,11.8 -39.1,11.8c-22.2,0 -48.2,-6.4 -73.1,-17.9c-2.5,-1.2 -5.2,-1.7 -7.9,-1.7c-2.1,0 -4.3,0.4 -6.3,1.1c-4.6,1.7 -8.4,5.1 -10.5,9.6l-22.8,49.1c-6.5,14.1 -0.4,30.9 13.7,37.5l145.1,67.3l145.1,67.3a28.36,28.36 0 0 0 37.5,-13.7l22.8,-49.1a18.43,18.43 0 0 0 -9.1,-24.6c-50.5,-23.5 -80.1,-60.7 -77.1,-81.8c0.2,-0.6 0.5,-1.1 0.7,-1.7c0.5,-1.1 0.9,-2.2 1.4,-3.2l2.6,-5.8l1.2,-2.5c2.4,-5.2 4.9,-10.4 7.8,-16c3.6,-7.1 7.1,-13.6 10.5,-19.4c4.6,-5.6 8.5,-11.7 11.7,-18.2c0.3,-0.5 0.5,-0.9 0.7,-1.4l0.4,-0.8c8.9,-19.3 11.3,-40.4 6.6,-59.4c-5,-20.3 -17.8,-36.5 -35.1,-44.5c-8,-4 -16.6,-5.9 -25.6,-5.9z"/>
  <path id="svg_9" fill="#514DDF" d="m690.40002,374.59997c-18.5,-23.1 -27,-47.9 -22.2,-69.8l0.4,-1.9l3.9,-9.1l4,-8.9c2.8,-6 5.6,-11.7 8.4,-17.3c4.3,-8.4 8.4,-16 12.3,-22.7l0.9,-1.6l1.2,-1.4c3.1,-3.6 5.7,-7.7 7.8,-11.9l1.1,-2.3c9,-20.8 4.5,-43.7 -10.1,-50.5c-14.7,-6.8 -35.1,4.6 -45.1,25l-0.9,2c-2,4.5 -3.4,9.1 -4.2,13.9l-0.3,1.8l-0.6,1.7c-2.6,7.4 -5.8,15.5 -9.4,24.2c-2.4,5.6 -5,11.5 -7.8,17.5l-1.3,2.8l-3,6.3l-4.2,8.6l-1.2,1.5c-13.6,17.9 -38.1,27.4 -67.7,28.2l138,63.9z"/>
  <path id="svg_10" fill="#FFFFFF" d="m668.4,272.1c-3.7,0 -7.4,-0.8 -10.8,-2.4c-12.4,-5.8 -18.1,-20.2 -12.5,-32.1c3.8,-8.3 12.4,-13.6 21.8,-13.6c3.7,0 7.4,0.8 10.8,2.4c6,2.8 10.6,7.6 12.9,13.6c2.4,6.1 2.3,12.7 -0.4,18.6a24.24,24.24 0 0 1 -21.8,13.5z"/>
  <path id="svg_11" fill="#151B28" d="m666.9,230.7c2.6,0 5.4,0.6 8,1.8c9.1,4.2 13.2,14.6 9.2,23.1c-2.8,6.1 -9,9.7 -15.7,9.7c-2.6,0 -5.4,-0.6 -8,-1.8c-9.1,-4.2 -13.2,-14.6 -9.2,-23.1c2.8,-6.1 9,-9.7 15.7,-9.7"/>
  <path id="svg_12" fill="#2AEFC8" d="m460.67201,328.11597l10.947,-23.583l259.959,120.669l-10.947,23.583l-259.959,-120.669z"/>
  <path id="svg_13" fill="#151B28" d="m479.60001,303.09997l259.9,120.7l-11,23.6l-259.8,-120.7l10.9,-23.6m0,-11a11.2,11.2 0 0 0 -10,6.4l-11,23.6c-2.6,5.5 -0.2,12.1 5.4,14.7l260,120.6a10.92,10.92 0 0 0 8.4,0.3c2.7,-1 5,-3.1 6.2,-5.7l11,-23.6c2.6,-5.5 0.2,-12.1 -5.4,-14.7l-259.9,-120.6c-1.5,-0.7 -3.1,-1 -4.7,-1zm78,341.4c-1.3,0 -2.6,-0.3 -3.9,-0.9a9.28,9.28 0 0 1 -4.5,-12.3l41.8,-90c2.2,-4.6 7.7,-6.7 12.3,-4.5c4.6,2.2 6.7,7.7 4.5,12.3l-41.8,90a9.17,9.17 0 0 1 -8.4,5.4zm-89.2,-41.4c-1.3,0 -2.6,-0.3 -3.9,-0.9a9.28,9.28 0 0 1 -4.5,-12.3l16,-34.4c2.2,-4.6 7.7,-6.7 12.3,-4.5c4.6,2.2 6.7,7.7 4.5,12.3l-16,34.4a9.17,9.17 0 0 1 -8.4,5.4z"/>
  <text font-weight="bold" font-style="italic" xml:space="preserve" text-anchor="start" font-family="'Simonetta', serif" font-size="178" id="svg_15" y="845.33424" x="253.9998" stroke-width="0" stroke="#000" fill="#ffffff">iBrush</text>
 </g>
</svg>