<?xml version="1.0" standalone="no"?><!DOCTYPE svg PUBLIC "-//W3C//DTD SVG 1.1//EN" "http://www.w3.org/Graphics/SVG/1.1/DTD/svg11.dtd"><svg t="1639632486654" class="icon" viewBox="0 0 1024 1024" version="1.1" xmlns="http://www.w3.org/2000/svg" p-id="6852" xmlns:xlink="http://www.w3.org/1999/xlink" width="200" height="200"><defs><style type="text/css"></style></defs><path d="M98.986667 518.4a418.844444 404.622222 0 1 0 837.688889 0 418.844444 404.622222 0 1 0-837.688889 0Z" fill="#FFFFFF" p-id="6853"></path><path d="M581.319111 519.68l123.221333-123.221333a43.576889 43.576889 0 1 0-61.610666-61.667556l-123.221334 123.221333-123.221333-123.221333a43.576889 43.576889 0 0 0-61.610667 61.610667l123.221334 123.278222-130.844445 123.221333a43.576889 43.576889 0 0 0 61.525334 61.667556l123.221333-123.221333 123.221333 123.221333a43.576889 43.576889 0 0 0 61.610667-61.610667z m107.804445-438.954667a481.422222 481.422222 0 0 1 154.026666 100.124445 410.368 410.368 0 0 1 100.124445 154.026666 451.84 451.84 0 0 1 30.862222 177.123556 452.750222 452.750222 0 0 1-130.844445 331.150222 410.368 410.368 0 0 1-154.026666 100.124445 451.84 451.84 0 0 1-177.123556 30.805333 452.750222 452.750222 0 0 1-331.150222-130.844444 410.368 410.368 0 0 1-100.124444-154.026667 451.811556 451.811556 0 0 1-30.805334-177.123556 452.750222 452.750222 0 0 1 130.844445-331.150222 410.368 410.368 0 0 1 154.026666-100.124444A477.525333 477.525333 0 0 1 512.056889 50.005333a451.84 451.84 0 0 1 177.066667 30.72z" fill="#FF5555" p-id="6854"></path></svg>