<?xml version="1.0" standalone="no"?><!DOCTYPE svg PUBLIC "-//W3C//DTD SVG 1.1//EN" "http://www.w3.org/Graphics/SVG/1.1/DTD/svg11.dtd"><svg t="1639632558484" class="icon" viewBox="0 0 1024 1024" version="1.1" xmlns="http://www.w3.org/2000/svg" p-id="7406" xmlns:xlink="http://www.w3.org/1999/xlink" width="200" height="200"><defs><style type="text/css"></style></defs><path d="M512 0a512 512 0 1 0 0 1024A512 512 0 0 0 512 0z m280.405333 367.189333L449.536 709.973333c-0.341333 0.341333-0.426667 0.853333-0.682667 1.109334a38.314667 38.314667 0 0 1-27.306666 11.178666 38.4 38.4 0 0 1-27.306667-11.178666c-0.341333-0.341333-0.426667-0.682667-0.682667-1.024L231.594667 548.181333a38.4 38.4 0 1 1 54.272-54.272l135.68 135.594667 316.586666-316.586667a38.4 38.4 0 1 1 54.272 54.272z" fill="#5DC560" p-id="7407"></path></svg>